<svg xmlns="http://www.w3.org/2000/svg" viewBox="0 0 200 200">
  <defs>
    <linearGradient id="g" x1="100" y1="10" x2="100" y2="192" gradientUnits="userSpaceOnUse">
      <stop offset="0%"   stop-color="#7fd46c"/>
      <stop offset="55%"  stop-color="#42b03c"/>
      <stop offset="100%" stop-color="#247a23"/>
    </linearGradient>
  </defs>
  <g stroke="url(#g)" fill="none" stroke-linecap="round" stroke-linejoin="round">
    <line x1="100" y1="136" x2="100" y2="153" stroke-width="4.5"/>
    <path d="M 100,136   Q  91,133  80,135"  stroke-width="2.4"/>
    <path d="M 100,136.5 Q  77,131  53,137"  stroke-width="3.2"/>
    <path d="M 100,137   Q  62,129  31,148"  stroke-width="4.2"/>
    <path d="M 100,137.5 Q  45,127  10,160"  stroke-width="5.5"/>
    <path d="M 100,136   Q 109,133 120,135"  stroke-width="2.4"/>
    <path d="M 100,136.5 Q 123,131 147,137"  stroke-width="3.2"/>
    <path d="M 100,137   Q 138,129 169,148"  stroke-width="4.2"/>
    <path d="M 100,137.5 Q 155,127 190,160"  stroke-width="5.5"/>
    <path d="M 10,160 Q 100,178 190,160" stroke-width="5.5"/>
    <ellipse cx="100" cy="74" rx="60" ry="19" stroke-width="5.5"/>
    <ellipse cx="100" cy="74" rx="60" ry="19" stroke-width="5.5" transform="rotate(60, 100, 74)"/>
    <ellipse cx="100" cy="74" rx="60" ry="19" stroke-width="5.5" transform="rotate(120, 100, 74)"/>
    <circle cx="100" cy="74" r="10" fill="url(#g)" stroke="none"/>
  </g>
</svg>
